<?xml version="1.0" standalone="no"?><!DOCTYPE svg PUBLIC "-//W3C//DTD SVG 1.1//EN" "http://www.w3.org/Graphics/SVG/1.1/DTD/svg11.dtd"><svg t="1751637462144" class="icon" viewBox="0 0 1024 1024" version="1.1" xmlns="http://www.w3.org/2000/svg" p-id="7964" xmlns:xlink="http://www.w3.org/1999/xlink" width="200" height="200"><path d="M803.2 531.2c4.8-4.8 8-11.2 9.6-17.6 1.6-14.4-4.8-28.8-17.6-35.2l-209.6-108.8 36.8-235.2c1.6-14.4-3.2-27.2-16-33.6-12.8-6.4-25.6-1.6-35.2 8L408 272 192 168c-12.8-6.4-30.4-6.4-40 3.2-9.6 9.6-11.2 27.2-4.8 40l104 222.4-161.6 160c-9.6 9.6-14.4 24-8 36.8 6.4 12.8 17.6 17.6 32 16l233.6-36.8 107.2 212.8c6.4 12.8 20.8 19.2 35.2 17.6 6.4-1.6 12.8-4.8 17.6-9.6 4.8-4.8 8-11.2 9.6-17.6l36.8-235.2L784 540.8c8-1.6 14.4-4.8 19.2-9.6zM100.8 332.8" fill="#FFD766" p-id="7965"></path><path d="M649.6 600l-33.6 8c-17.6 1.6-33.6 16-36.8 35.2l-4.8 28.8L864 1004.8c16 19.2 41.6 24 64 12.8 11.2-6.4 24-12.8 33.6-22.4 12.8-12.8 22.4-28.8 30.4-43.2 12.8-22.4 6.4-51.2-12.8-67.2L649.6 600z" fill="#FF5562" p-id="7966"></path><path d="M88 324.8c0-1.6-1.6-1.6-3.2-1.6s-4.8 0-6.4 1.6l-22.4 35.2-38.4-11.2c-1.6 0-4.8 0-6.4 1.6-1.6 1.6 0 4.8 0 6.4l24 32-22.4 36.8c-1.6 1.6-1.6 4.8 0 6.4 1.6 1.6 4.8 3.2 6.4 1.6l40-14.4 24 32c1.6 1.6 3.2 3.2 6.4 1.6 1.6-1.6 3.2-3.2 3.2-4.8l-1.6-41.6 38.4-14.4c1.6-1.6 3.2-3.2 3.2-6.4 0-1.6 0-3.2-1.6-3.2 0-1.6-1.6-1.6-3.2-1.6l-38.4-11.2-1.6-41.6v-3.2z m0 0" fill="#5ACC9B" p-id="7967"></path><path d="M464 60.8v-4.8c-1.6-3.2-4.8-4.8-8-3.2l-51.2 8L380.8 14.4c-1.6-3.2-4.8-4.8-6.4-3.2-3.2 0-4.8 3.2-4.8 6.4l-8 49.6-51.2 9.6c-3.2 1.6-6.4 3.2-6.4 6.4s1.6 6.4 4.8 8l46.4 25.6-8 49.6c0 3.2 0 6.4 3.2 8 3.2 1.6 4.8 0 8-1.6l36.8-36.8 46.4 24c1.6 0 4.8 0 6.4-3.2 1.6-1.6 1.6-3.2 1.6-4.8v-4.8l-24-46.4L462.4 64c1.6 0 1.6-1.6 1.6-3.2z" fill="#6CCBFF" p-id="7968"></path><path d="M915.2 185.6v-4.8c-1.6-3.2-4.8-4.8-8-4.8l-56 9.6-25.6-51.2c-1.6-3.2-4.8-4.8-8-4.8s-4.8 3.2-6.4 6.4l-9.6 56-57.6 11.2c-3.2 0-6.4 3.2-8 6.4 0 3.2 1.6 6.4 4.8 8l51.2 28.8-9.6 54.4c0 3.2 0 6.4 3.2 8 3.2 1.6 6.4 1.6 8-1.6l40-41.6 51.2 25.6c3.2 1.6 6.4 1.6 9.6-1.6 1.6-1.6 1.6-3.2 1.6-4.8v-4.8l-25.6-51.2 40-41.6c3.2 1.6 4.8 0 4.8-1.6z" fill="#8095FF" p-id="7969"></path></svg>